[Header]
FileType HTR
DataType HTRS
FileVersion 1
NumSegments 64
NumFrames 4
DataFrameRate 24
EulerRotationOrder ZYX
CalibrationUnits mm
RotationUnits Degrees
GlobalAxisofGravity Y
BoneLengthAxis Y
ScaleFactor 1.0
[SegmentNames&Hierarchy]
Hips	GLOBAL
Spine	Hips
Spine1	Spine
Spine2	Spine1
Neck	Spine2
Head	Neck
LeftEye	Head
RightEye	Head
LeftShoulder	Spine2
LeftArm	LeftShoulder
LeftForeArm	LeftArm
LeftHand	LeftForeArm
LeftHandThumb1	LeftHand
LeftHandThumb2	LeftHandThumb1
LeftHandThumb3	LeftHandThumb2
LeftHandThumb4	LeftHandThumb3
LeftHandIndex1	LeftHand
LeftHandIndex2	LeftHandIndex1
LeftHandIndex3	LeftHandIndex2
LeftHandIndex4	LeftHandIndex3
LeftHandMiddle1	LeftHand
LeftHandMiddle2	LeftHandMiddle1
LeftHandMiddle3	LeftHandMiddle2
LeftHandMiddle4	LeftHandMiddle3
LeftHandRing1	LeftHand
LeftHandRing2	LeftHandRing1
LeftHandRing3	LeftHandRing2
LeftHandRing4	LeftHandRing3
LeftHandPinky1	LeftHand
LeftHandPinky2	LeftHandPinky1
LeftHandPinky3	LeftHandPinky2
LeftHandPinky4	LeftHandPinky3
RightShoulder	Spine2
RightArm	RightShoulder
RightForeArm	RightArm
RightHand	RightForeArm
RightHandPinky1	RightHand
RightHandPinky2	RightHandPinky1
RightHandPinky3	RightHandPinky2
RightHandPinky4	RightHandPinky3
RightHandRing1	RightHand
RightHandRing2	RightHandRing1
RightHandRing3	RightHandRing2
RightHandRing4	RightHandRing3
RightHandMiddle1	RightHand
RightHandMiddle2	RightHandMiddle1
RightHandMiddle3	RightHandMiddle2
RightHandMiddle4	RightHandMiddle3
RightHandIndex1	RightHand
RightHandIndex2	RightHandIndex1
RightHandIndex3	RightHandIndex2
RightHandIndex4	RightHandIndex3
RightHandThumb1	RightHand
RightHandThumb2	RightHandThumb1
RightHandThumb3	RightHandThumb2
RightHandThumb4	RightHandThumb3
LeftUpLeg	Hips
LeftLeg	LeftUpLeg
LeftFoot	LeftLeg
LeftToeBase	LeftFoot
RightUpLeg	Hips
RightLeg	RightUpLeg
RightFoot	RightLeg
RightToeBase	RightFoot
[BasePosition]
Hips	0	0	0	0	0	0	1
Spine	0	0	0	0	0	0	1
Spine1	0	0	0	0	0	0	1
Spine2	0	0	0	0	0	0	1
Neck	0	0	0	0	0	0	1
Head	0	0	0	0	0	0	1
LeftEye	0	0	0	0	0	0	1
RightEye	0	0	0	0	0	0	1
LeftShoulder	0	0	0	0	0	0	1
LeftArm	0	0	0	0	0	0	1
LeftForeArm	0	0	0	0	0	0	1
LeftHand	0	0	0	0	0	0	1
LeftHandThumb1	0	0	0	0	0	0	1
LeftHandThumb2	0	0	0	0	0	0	1
LeftHandThumb3	0	0	0	0	0	0	1
LeftHandThumb4	0	0	0	0	0	0	1
LeftHandIndex1	0	0	0	0	0	0	1
LeftHandIndex2	0	0	0	0	0	0	1
LeftHandIndex3	0	0	0	0	0	0	1
LeftHandIndex4	0	0	0	0	0	0	1
LeftHandMiddle1	0	0	0	0	0	0	1
LeftHandMiddle2	0	0	0	0	0	0	1
LeftHandMiddle3	0	0	0	0	0	0	1
LeftHandMiddle4	0	0	0	0	0	0	1
LeftHandRing1	0	0	0	0	0	0	1
LeftHandRing2	0	0	0	0	0	0	1
LeftHandRing3	0	0	0	0	0	0	1
LeftHandRing4	0	0	0	0	0	0	1
LeftHandPinky1	0	0	0	0	0	0	1
LeftHandPinky2	0	0	0	0	0	0	1
LeftHandPinky3	0	0	0	0	0	0	1
LeftHandPinky4	0	0	0	0	0	0	1
RightShoulder	0	0	0	0	0	0	1
RightArm	0	0	0	0	0	0	1
RightForeArm	0	0	0	0	0	0	1
RightHand	0	0	0	0	0	0	1
RightHandPinky1	0	0	0	0	0	0	1
RightHandPinky2	0	0	0	0	0	0	1
RightHandPinky3	0	0	0	0	0	0	1
RightHandPinky4	0	0	0	0	0	0	1
RightHandRing1	0	0	0	0	0	0	1
RightHandRing2	0	0	0	0	0	0	1
RightHandRing3	0	0	0	0	0	0	1
RightHandRing4	0	0	0	0	0	0	1
RightHandMiddle1	0	0	0	0	0	0	1
RightHandMiddle2	0	0	0	0	0	0	1
RightHandMiddle3	0	0	0	0	0	0	1
RightHandMiddle4	0	0	0	0	0	0	1
RightHandIndex1	0	0	0	0	0	0	1
RightHandIndex2	0	0	0	0	0	0	1
RightHandIndex3	0	0	0	0	0	0	1
RightHandIndex4	0	0	0	0	0	0	1
RightHandThumb1	0	0	0	0	0	0	1
RightHandThumb2	0	0	0	0	0	0	1
RightHandThumb3	0	0	0	0	0	0	1
RightHandThumb4	0	0	0	0	0	0	1
LeftUpLeg	0	0	0	0	0	0	1
LeftLeg	0	0	0	0	0	0	1
LeftFoot	0	0	0	0	0	0	1
LeftToeBase	0	0	0	0	0	0	1
RightUpLeg	0	0	0	0	0	0	1
RightLeg	0	0	0	0	0	0	1
RightFoot	0	0	0	0	0	0	1
RightToeBase	0	0	0	0	0	0	1
[Hips]
26	-0.07300496101	1034.226685	17.99123192	-3.090894461	-5.913730621	-3.456011772	1.0
27	-0.2637970448	1034.240723	18.3198204	-3.128015041	-5.916449547	-3.440532684	1.0
28	-0.4332113266	1034.243164	18.60056877	-3.164284945	-5.908664227	-3.426314831	1.0
29	-0.5927157402	1034.235352	18.81363297	-3.20470047	-5.889870644	-3.408432961	1.0
[Spine]
26	0	101.8159943	1.315000057	3.458701849	1.457772374	2.776159048	1.0
27	0	101.8159943	1.315000057	3.462687969	1.497069955	2.787805557	1.0
28	0	101.8159943	1.315000057	3.466403484	1.535349965	2.802187681	1.0
29	0	101.8159943	1.315000057	3.476976395	1.573650002	2.820021629	1.0
[Spine1]
26	0	100.8349991	-10.00800037	1.179091811	0.3379098177	1.540085077	1.0
27	0	100.8349991	-10.00800037	1.178880453	0.3542072475	1.544523716	1.0
28	0	100.8349991	-10.00800037	1.178900003	0.3701285124	1.549894452	1.0
29	0	100.8349991	-10.00800037	1.181631207	0.3860625625	1.556610346	1.0
[Spine2]
26	0	91	-13.73399925	1.153862596	0.3604952991	1.543083906	1.0
27	0	91	-13.73399925	1.153654218	0.3767824769	1.547425151	1.0
28	0	91	-13.73399925	1.153676748	0.3926983476	1.552706242	1.0
29	0	91	-13.73399925	1.156417012	0.4086254835	1.559329987	1.0
[Neck]
26	0	166.7169952	-25.16200066	5.57873106	-0.1677149981	0.4731181264	1.0
27	0	166.7169952	-25.16200066	5.58382082	-0.1807724983	0.4698882997	1.0
28	0	166.7169952	-25.16200066	5.587734222	-0.193964079	0.4762270451	1.0
29	0	166.7169952	-25.16200066	5.589770317	-0.2060026824	0.4874139428	1.0
[Head]
26	0	96.17900085	16.84999847	-7.81462431	1.218750238	-0.3102546036	1.0
27	0	96.17900085	16.84999847	-7.848340034	1.172795057	-0.3004783094	1.0
28	0	96.17900085	16.84999847	-7.908820152	1.139808059	-0.2912673354	1.0
29	0	96.17900085	16.84999847	-7.986327648	1.119138002	-0.2804948688	1.0
[LeftEye]
26	30.6760006	64.09500122	92.83599854	0	0	0	1.0
27	30.6760006	64.09500122	92.83599854	0	0	0	1.0
28	30.6760006	64.09500122	92.83599854	0	0	0	1.0
29	30.6760006	64.09500122	92.83599854	0	0	0	1.0
[RightEye]
26	-30.6760006	64.09500122	92.83499908	0	0	0	1.0
27	-30.6760006	64.09500122	92.83499908	0	0	0	1.0
28	-30.6760006	64.09500122	92.83499908	0	0	0	1.0
29	-30.6760006	64.09500122	92.83499908	0	0	0	1.0
[LeftShoulder]
26	45.70400238	109.4599991	-26.28000069	4.87978363	-16.59080315	-13.14636707	1.0
27	45.70400238	109.4599991	-26.28000069	4.87697506	-16.57032776	-13.13857555	1.0
28	45.70400238	109.4599991	-26.28000069	4.873254299	-16.55000496	-13.12579346	1.0
29	45.70400238	109.4599991	-26.28000069	4.869681358	-16.53435898	-13.11209011	1.0
[LeftArm]
26	105.923996	-5.24600029	-22.32099915	19.9636631	-3.447395563	-71.00608826	1.0
27	105.923996	-5.24600029	-22.32099915	19.93408394	-3.473747253	-71.03098297	1.0
28	105.923996	-5.24600029	-22.32099915	19.91911316	-3.491094112	-71.06642151	1.0
29	105.923996	-5.24600029	-22.32099915	19.91688919	-3.513171911	-71.11357117	1.0
[LeftForeArm]
26	278.414978	-0.0009999999311	0	-1.40197335e-05	-1.436135769	-0.0001907604019	1.0
27	278.414978	-0.0009999999311	0	-4.982009614e-07	-1.433520079	-0.0002104618761	1.0
28	278.414978	-0.0009999999311	0	-7.49963192e-06	-1.433318615	-0.0001934587199	1.0
29	278.414978	-0.0009999999311	0	-1.187063845e-06	-1.443141222	-0.0001865449885	1.0
[LeftHand]
26	283.2879944	0	0	-32.73584747	-4.328644753	-4.289572239	1.0
27	283.2879944	0	0	-32.70772552	-4.338157177	-4.298270702	1.0
28	283.2879944	0	0	-32.71320724	-4.365180969	-4.292469978	1.0
29	283.2879944	0	0	-32.70703888	-4.384783268	-4.270920753	1.0
[LeftHandThumb1]
26	24.6609993	-15.75	26.8239994	-0.4889889657	2.201390743	4.818541527	1.0
27	24.6609993	-15.75	26.8239994	-0.4889889657	2.201390743	4.818541527	1.0
28	24.6609993	-15.75	26.8239994	-0.4889889657	2.201390743	4.818541527	1.0
29	24.6609993	-15.75	26.8239994	-0.4889889657	2.201390743	4.818541527	1.0
[LeftHandThumb2]
26	32.29800034	-18.64699936	18.64699936	19.88581276	19.96446037	23.26738167	1.0
27	32.29800034	-18.64699936	18.64699936	19.88581276	19.96446037	23.26738167	1.0
28	32.29800034	-18.64699936	18.64699936	19.88581276	19.96446037	23.26738167	1.0
29	32.29800034	-18.64699936	18.64699936	19.88581276	19.96446037	23.26738167	1.0
[LeftHandThumb3]
26	26.52600098	-15.31499958	15.31499958	-13.14535904	5.551738262	7.967928886	1.0
27	26.52600098	-15.31499958	15.31499958	-13.14535904	5.551738262	7.967928886	1.0
28	26.52600098	-15.31499958	15.31499958	-13.14535904	5.551738262	7.967928886	1.0
29	26.52600098	-15.31499958	15.31499958	-13.14535904	5.551738262	7.967928886	1.0
[LeftHandThumb4]
26	19.54599953	-11.28499985	11.28499985	0	0	0	1.0
27	19.54599953	-11.28499985	11.28499985	0	0	0	1.0
28	19.54599953	-11.28499985	11.28499985	0	0	0	1.0
29	19.54599953	-11.28499985	11.28499985	0	0	0	1.0
[LeftHandIndex1]
26	91.09299469	-5.170999527	22.60099792	0.1480516791	-0.9618676901	-7.594518185	1.0
27	91.09299469	-5.170999527	22.60099792	0.1480516791	-0.9618676901	-7.594518185	1.0
28	91.09299469	-5.170999527	22.60099792	0.1480516791	-0.9618676901	-7.594518185	1.0
29	91.09299469	-5.170999527	22.60099792	0.1480516791	-0.9618676901	-7.594518185	1.0
[LeftHandIndex2]
26	36.76399994	0	0	-0.2667043209	1.745171905	-17.37646866	1.0
27	36.76399994	0	0	-0.2667043209	1.745171905	-17.37646866	1.0
28	36.76399994	0	0	-0.2667043209	1.745171905	-17.37646866	1.0
29	36.76399994	0	0	-0.2667043209	1.745171905	-17.37646866	1.0
[LeftHandIndex3]
26	28.83100128	0	0	-0.05742863193	0.817338407	-8.038370132	1.0
27	28.83100128	0	0	-0.05742863193	0.817338407	-8.038370132	1.0
28	28.83100128	0	0	-0.05742863193	0.817338407	-8.038370132	1.0
29	28.83100128	0	0	-0.05742863193	0.817338407	-8.038370132	1.0
[LeftHandIndex4]
26	23.92700005	0	0	0	0	0	1.0
27	23.92700005	0	0	0	0	0	1.0
28	23.92700005	0	0	0	0	0	1.0
29	23.92700005	0	0	0	0	0	1.0
[LeftHandMiddle1]
26	95.33399963	0	0	-0.7942916155	2.538622379	-15.71737862	1.0
27	95.33399963	0	0	-0.7942916155	2.538622379	-15.71737862	1.0
28	95.33399963	0	0	-0.7942916155	2.538622379	-15.71737862	1.0
29	95.33399963	0	0	-0.7942916155	2.538622379	-15.71737862	1.0
[LeftHandMiddle2]
26	36.98199844	0	0	-0.267610997	1.748071074	-17.40625954	1.0
27	36.98199844	0	0	-0.267610997	1.748071074	-17.40625954	1.0
28	36.98199844	0	0	-0.267610997	1.748071074	-17.40625954	1.0
29	36.98199844	0	0	-0.267610997	1.748071074	-17.40625954	1.0
[LeftHandMiddle3]
26	29.50900078	0	0	-0.2992140949	1.84580946	-18.41413307	1.0
27	29.50900078	0	0	-0.2992140949	1.84580946	-18.41413307	1.0
28	29.50900078	0	0	-0.2992140949	1.84580946	-18.41413307	1.0
29	29.50900078	0	0	-0.2992140949	1.84580946	-18.41413307	1.0
[LeftHandMiddle4]
26	28.3390007	0	0	0	0	0	1.0
27	28.3390007	0	0	0	0	0	1.0
28	28.3390007	0	0	0	0	0	1.0
29	28.3390007	0	0	0	0	0	1.0
[LeftHandRing1]
26	91.04499817	-0.4390000105	-18.65100098	-1.184956431	3.436642885	-21.16632462	1.0
27	91.04499817	-0.4390000105	-18.65100098	-1.184956431	3.436642885	-21.16632462	1.0
28	91.04499817	-0.4390000105	-18.65100098	-1.184956431	3.436642885	-21.16632462	1.0
29	91.04499817	-0.4390000105	-18.65100098	-1.184956431	3.436642885	-21.16632462	1.0
[LeftHandRing2]
26	31.54000092	0	0	-0.3849357069	2.085560799	-20.91281319	1.0
27	31.54000092	0	0	-0.3849357069	2.085560799	-20.91281319	1.0
28	31.54000092	0	0	-0.3849357069	2.085560799	-20.91281319	1.0
29	31.54000092	0	0	-0.3849357069	2.085560799	-20.91281319	1.0
[LeftHandRing3]
26	29.37700081	0	0	-0.2818065584	1.792707562	-17.86576271	1.0
27	29.37700081	0	0	-0.2818065584	1.792707562	-17.86576271	1.0
28	29.37700081	0	0	-0.2818065584	1.792707562	-17.86576271	1.0
29	29.37700081	0	0	-0.2818065584	1.792707562	-17.86576271	1.0
[LeftHandRing4]
26	26.47500038	0	0	0	0	0	1.0
27	26.47500038	0	0	0	0	0	1.0
28	26.47500038	0	0	0	0	0	1.0
29	26.47500038	0	0	0	0	0	1.0
[LeftHandPinky1]
26	80.77799988	-4.887000084	-38.06099701	-1.708467126	5.355370045	-27.1653862	1.0
27	80.77799988	-4.887000084	-38.06099701	-1.708467126	5.355370045	-27.1653862	1.0
28	80.77799988	-4.887000084	-38.06099701	-1.708467126	5.355370045	-27.1653862	1.0
29	80.77799988	-4.887000084	-38.06099701	-1.708467126	5.355370045	-27.1653862	1.0
[LeftHandPinky2]
26	36	0	0	-0.2676221728	1.748113751	-17.40663528	1.0
27	36	0	0	-0.2676221728	1.748113751	-17.40663528	1.0
28	36	0	0	-0.2676221728	1.748113751	-17.40663528	1.0
29	36	0	0	-0.2676221728	1.748113751	-17.40663528	1.0
[LeftHandPinky3]
26	21.14200211	0	0	-0.2408525199	1.660349369	-16.50663185	1.0
27	21.14200211	0	0	-0.2408525199	1.660349369	-16.50663185	1.0
28	21.14200211	0	0	-0.2408525199	1.660349369	-16.50663185	1.0
29	21.14200211	0	0	-0.2408525199	1.660349369	-16.50663185	1.0
[LeftHandPinky4]
26	19.75699997	0	0	0	0	0	1.0
27	19.75699997	0	0	0	0	0	1.0
28	19.75699997	0	0	0	0	0	1.0
29	19.75699997	0	0	0	0	0	1.0
[RightShoulder]
26	-45.70000076	109.4620056	-26.28000069	5.203435898	14.49032593	15.65829277	1.0
27	-45.70000076	109.4620056	-26.28000069	5.209191322	14.49114323	15.69268894	1.0
28	-45.70000076	109.4620056	-26.28000069	5.219284534	14.50608063	15.74542809	1.0
29	-45.70000076	109.4620056	-26.28000069	5.231060028	14.5359993	15.79985046	1.0
[RightArm]
26	-105.9280014	-5.248000145	-22.32099915	30.10490799	2.013045073	62.75067139	1.0
27	-105.9280014	-5.248000145	-22.32099915	30.06626701	2.003500223	62.75948334	1.0
28	-105.9280014	-5.248000145	-22.32099915	30.03687096	1.991125941	62.74206924	1.0
29	-105.9280014	-5.248000145	-22.32099915	30.01891327	1.974635243	62.70215607	1.0
[RightForeArm]
26	-278.414978	0	0	6.570036021e-06	6.751651764	-6.204453712e-06	1.0
27	-278.414978	0	0	-5.009577762e-06	6.741003036	1.759671704e-06	1.0
28	-278.414978	0	0	3.068124215e-06	6.734994411	-2.08494148e-05	1.0
29	-278.414978	0	0	3.675812422e-06	6.74908638	5.208807124e-06	1.0
[RightHand]
26	-283.2879944	0	0.0009999999311	-20.07676506	1.848476768	6.632416248	1.0
27	-283.2879944	0	0.0009999999311	-20.10660934	1.855216622	6.62739706	1.0
28	-283.2879944	0	0.0009999999311	-20.14377975	1.837015867	6.600436211	1.0
29	-283.2879944	0	0.0009999999311	-20.17179489	1.780885935	6.527949333	1.0
[RightHandPinky1]
26	-80.76699829	-4.885000229	-38.06000137	-1.507175922	-4.696118355	26.50587463	1.0
27	-80.76699829	-4.885000229	-38.06000137	-1.507175922	-4.696118355	26.50587463	1.0
28	-80.76699829	-4.885000229	-38.06000137	-1.507175922	-4.696118355	26.50587463	1.0
29	-80.76699829	-4.885000229	-38.06000137	-1.507175922	-4.696118355	26.50587463	1.0
[RightHandPinky2]
26	-36	0	0.0009999999311	-0.2127676606	-1.388874292	17.43785858	1.0
27	-36	0	0.0009999999311	-0.2127676606	-1.388874292	17.43785858	1.0
28	-36	0	0.0009999999311	-0.2127676606	-1.388874292	17.43785858	1.0
29	-36	0	0.0009999999311	-0.2127676606	-1.388874292	17.43785858	1.0
[RightHandPinky3]
26	-21.14200211	0	0	-0.1919144988	-1.32059598	16.53641129	1.0
27	-21.14200211	0	0	-0.1919144988	-1.32059598	16.53641129	1.0
28	-21.14200211	0	0	-0.1919144988	-1.32059598	16.53641129	1.0
29	-21.14200211	0	0	-0.1919144988	-1.32059598	16.53641129	1.0
[RightHandPinky4]
26	-19.75699997	0	0	0	0	0	1.0
27	-19.75699997	0	0	0	0	0	1.0
28	-19.75699997	0	0	0	0	0	1.0
29	-19.75699997	0	0	0	0	0	1.0
[RightHandRing1]
26	-91.03599548	-0.4390000105	-18.65100098	-1.045235753	-2.883111477	20.47788429	1.0
27	-91.03599548	-0.4390000105	-18.65100098	-1.045235753	-2.883111477	20.47788429	1.0
28	-91.03599548	-0.4390000105	-18.65100098	-1.045235753	-2.883111477	20.47788429	1.0
29	-91.03599548	-0.4390000105	-18.65100098	-1.045235753	-2.883111477	20.47788429	1.0
[RightHandRing2]
26	-31.54000092	0	0	-0.3066971898	-1.658752441	20.94926834	1.0
27	-31.54000092	0	0	-0.3066971898	-1.658752441	20.94926834	1.0
28	-31.54000092	0	0	-0.3066971898	-1.658752441	20.94926834	1.0
29	-31.54000092	0	0	-0.3066971898	-1.658752441	20.94926834	1.0
[RightHandRing3]
26	-29.37700081	0	0	-0.2245407403	-1.425854325	17.89771652	1.0
27	-29.37700081	0	0	-0.2245407403	-1.425854325	17.89771652	1.0
28	-29.37700081	0	0	-0.2245407403	-1.425854325	17.89771652	1.0
29	-29.37700081	0	0	-0.2245407403	-1.425854325	17.89771652	1.0
[RightHandRing4]
26	-26.47500038	0	0	0	0	0	1.0
27	-26.47500038	0	0	0	0	0	1.0
28	-26.47500038	0	0	0	0	0	1.0
29	-26.47500038	0	0	0	0	0	1.0
[RightHandMiddle1]
26	-95.32500458	0	0	-0.7017197609	-2.087752104	15.0152874	1.0
27	-95.32500458	0	0	-0.7017197609	-2.087752104	15.0152874	1.0
28	-95.32500458	0	0	-0.7017197609	-2.087752104	15.0152874	1.0
29	-95.32500458	0	0	-0.7017197609	-2.087752104	15.0152874	1.0
[RightHandMiddle2]
26	-36.98199844	0	0	-0.213228479	-1.390354872	17.43750381	1.0
27	-36.98199844	0	0	-0.213228479	-1.390354872	17.43750381	1.0
28	-36.98199844	0	0	-0.213228479	-1.390354872	17.43750381	1.0
29	-36.98199844	0	0	-0.213228479	-1.390354872	17.43750381	1.0
[RightHandMiddle3]
26	-29.50900078	0	0	-0.2384106964	-1.470119596	18.44692802	1.0
27	-29.50900078	0	0	-0.2384106964	-1.470119596	18.44692802	1.0
28	-29.50900078	0	0	-0.2384106964	-1.470119596	18.44692802	1.0
29	-29.50900078	0	0	-0.2384106964	-1.470119596	18.44692802	1.0
[RightHandMiddle4]
26	-28.3390007	0	0.0009999999311	0	0	0	1.0
27	-28.3390007	0	0.0009999999311	0	0	0	1.0
28	-28.3390007	0	0.0009999999311	0	0	0	1.0
29	-28.3390007	0	0.0009999999311	0	0	0	1.0
[RightHandIndex1]
26	-91.08300018	-5.167999744	22.60099792	0.1884763837	1.25192976	6.825599194	1.0
27	-91.08300018	-5.167999744	22.60099792	0.1884763837	1.25192976	6.825599194	1.0
28	-91.08300018	-5.167999744	22.60099792	0.1884763837	1.25192976	6.825599194	1.0
29	-91.08300018	-5.167999744	22.60099792	0.1884763837	1.25192976	6.825599194	1.0
[RightHandIndex2]
26	-36.76399994	0	0	-0.2125098109	-1.388050556	17.40767097	1.0
27	-36.76399994	0	0	-0.2125098109	-1.388050556	17.40767097	1.0
28	-36.76399994	0	0	-0.2125098109	-1.388050556	17.40767097	1.0
29	-36.76399994	0	0	-0.2125098109	-1.388050556	17.40767097	1.0
[RightHandIndex3]
26	-28.83100128	0	0	-0.04576345533	-0.650116384	8.053516388	1.0
27	-28.83100128	0	0	-0.04576345533	-0.650116384	8.053516388	1.0
28	-28.83100128	0	0	-0.04576345533	-0.650116384	8.053516388	1.0
29	-28.83100128	0	0	-0.04576345533	-0.650116384	8.053516388	1.0
[RightHandIndex4]
26	-23.92700005	0	0	0	0	0	1.0
27	-23.92700005	0	0	0	0	0	1.0
28	-23.92700005	0	0	0	0	0	1.0
29	-23.92700005	0	0	0	0	0	1.0
[RightHandThumb1]
26	-24.64799881	-15.72700024	26.82600021	-1.658462524	-0.2891407609	-4.221328735	1.0
27	-24.64799881	-15.72700024	26.82600021	-1.658462524	-0.2891407609	-4.221328735	1.0
28	-24.64799881	-15.72700024	26.82600021	-1.658462524	-0.2891407609	-4.221328735	1.0
29	-24.64799881	-15.72700024	26.82600021	-1.658462524	-0.2891407609	-4.221328735	1.0
[RightHandThumb2]
26	-32.29800034	-18.64699936	18.64699936	22.25259209	-23.88967514	-24.282444	1.0
27	-32.29800034	-18.64699936	18.64699936	22.25259209	-23.88967514	-24.282444	1.0
28	-32.29800034	-18.64699936	18.64699936	22.25259209	-23.88967514	-24.282444	1.0
29	-32.29800034	-18.64699936	18.64699936	22.25259209	-23.88967514	-24.282444	1.0
[RightHandThumb3]
26	-26.52600098	-15.31399918	15.31399918	-14.47830296	-6.743862152	-11.36570263	1.0
27	-26.52600098	-15.31399918	15.31399918	-14.47830296	-6.743862152	-11.36570263	1.0
28	-26.52600098	-15.31399918	15.31399918	-14.47830296	-6.743862152	-11.36570263	1.0
29	-26.52600098	-15.31399918	15.31399918	-14.47830296	-6.743862152	-11.36570263	1.0
[RightHandThumb4]
26	-19.54599953	-11.28499985	11.28499985	0	0	0	1.0
27	-19.54599953	-11.28499985	11.28499985	0	0	0	1.0
28	-19.54599953	-11.28499985	11.28499985	0	0	0	1.0
29	-19.54599953	-11.28499985	11.28499985	0	0	0	1.0
[LeftUpLeg]
26	82.07800293	-67.51699829	-15.99599934	-8.326759338	16.43560791	7.909555912	1.0
27	82.07800293	-67.51699829	-15.99599934	-8.261269569	16.46925545	7.923084736	1.0
28	82.07800293	-67.51699829	-15.99599934	-8.2085886	16.49357986	7.932352066	1.0
29	82.07800293	-67.51699829	-15.99599934	-8.153764725	16.50375366	7.930624008	1.0
[LeftLeg]
26	0	-443.7049866	2.845999956	12.30760384	1.369451046	4.513685703	1.0
27	0	-443.7049866	2.845999956	12.30094242	1.335077763	4.497265816	1.0
28	0	-443.7049866	2.845999956	12.30436897	1.296632171	4.48521471	1.0
29	0	-443.7049866	2.845999956	12.29613018	1.261594296	4.484102726	1.0
[LeftFoot]
26	0	-444.2789917	-29.8219986	1.056604862	0.676692605	-7.208213329	1.0
27	0	-444.2789917	-29.8219986	1.046179295	0.6758304238	-7.202953339	1.0
28	0	-444.2789917	-29.8219986	1.037329197	0.6753093004	-7.199069977	1.0
29	0	-444.2789917	-29.8219986	1.030189157	0.6753959656	-7.197782993	1.0
[LeftToeBase]
26	0	-87.28699493	107.1060028	-4.924034595	-4.121277925e-06	-4.451020231e-06	1.0
27	0	-87.28699493	107.1060028	-4.931053162	2.457919209e-06	-1.524317895e-06	1.0
28	0	-87.28699493	107.1060028	-4.942372799	7.450679277e-06	4.017030733e-06	1.0
29	0	-87.28699493	107.1060028	-4.935753822	3.863337042e-06	2.027363735e-07	1.0
[RightUpLeg]
26	-82.07800293	-67.51699829	-15.99599934	0.1740708202	-10.36490726	3.547506094	1.0
27	-82.07800293	-67.51699829	-15.99599934	0.2358221263	-10.36194992	3.534732103	1.0
28	-82.07800293	-67.51699829	-15.99599934	0.2863549292	-10.37730408	3.515631199	1.0
29	-82.07800293	-67.51699829	-15.99599934	0.3250445724	-10.3931942	3.49429822	1.0
[RightLeg]
26	0	-443.7049866	2.861999989	7.416471958	-9.296116829	-4.449221611	1.0
27	0	-443.7049866	2.861999989	7.41593647	-9.294376373	-4.460107327	1.0
28	0	-443.7049866	2.861999989	7.431775093	-9.293526649	-4.459889412	1.0
29	0	-443.7049866	2.861999989	7.470870018	-9.28796196	-4.464988232	1.0
[RightFoot]
26	0	-444.2770081	-29.83799934	-3.653584003	-0.9812344909	3.2255373	1.0
27	0	-444.2770081	-29.83799934	-3.679457664	-0.9687944055	3.232007027	1.0
28	0	-444.2770081	-29.83799934	-3.711508989	-0.9586696625	3.23248291	1.0
29	0	-444.2770081	-29.83799934	-3.752035618	-0.9639531374	3.235321045	1.0
[RightToeBase]
26	0	-87.28699493	107.1060028	-7.198730946	-1.2238811e-05	1.393084972e-06	1.0
27	0	-87.28699493	107.1060028	-7.197589874	-1.076779972e-05	-2.713669289e-08	1.0
28	0	-87.28699493	107.1060028	-7.198066711	-1.075279397e-05	-1.320117065e-07	1.0
29	0	-87.28699493	107.1060028	-7.196322441	-1.130773626e-06	-4.569386647e-07	1.0
[EndOfFile]
